<svg xmlns="http://www.w3.org/2000/svg" viewBox="0 0 331.16 330.12"><defs><style>.cls-1{fill:#47423f;}.cls-2{fill:#232321;}.cls-3{fill:#fcfcfc;}.cls-4{fill:#fbfbfb;}.cls-5{fill:#fbfbfa;}</style></defs><g id="Calque_2" data-name="Calque 2"><g id="Calque_1-2" data-name="Calque 1"><path class="cls-1" d="M165.55.11Q245.76.11,326,0c4.08,0,5.19.87,5.18,5.1q-.2,159.9,0,319.81c0,4.05-.86,5.2-5.11,5.19q-160.17-.21-320.35,0c-4.47,0-5.7-1-5.69-5.61Q.21,165.09,0,5.69C0,1.23,1,0,5.62,0,58.93.18,112.24.12,165.55.11ZM85.1,163.75h0c0,15.65-.38,31.31.13,46.95a75.45,75.45,0,0,0,8.13,32c7.35,14.4,18.44,25.18,32.78,32.87,17.48,9.37,35.89,13.15,55.32,9.21,12.24-2.48,23.18-8.14,33.42-15.75,15.49-11.51,24.41-26.79,29.06-45,3.84-15.05,2.07-30.45,1.81-45.68-.11-6.55-3.15-12.26-10.66-14.6a45.88,45.88,0,0,0-13.57-2.49c-4.94,0-5.58-1.95-5.62-6.18-.15-14,.82-27.9-.79-41.85-1.26-10.89-10.86-18-21.59-15.48a59,59,0,0,0-10.87,3.54c-1.6.72-3.2,1.29-4.68,0-7.83-6.64-15.88-5.29-24-.69-2.5,1.42-4.57,1.67-7.34,0-7.25-4.37-15-5.83-22.2-.09-3.47,2.75-6.24,2.21-9.34,0A16.75,16.75,0,0,0,106,97c-11.49-.72-21.14,6.63-21,20.28C85.26,132.78,85.1,148.27,85.1,163.75Z"/><path class="cls-2" d="M85.1,163.75c0-15.48.16-31,0-46.45-.19-13.65,9.46-21,21-20.28a16.75,16.75,0,0,1,9.12,3.51c3.1,2.26,5.87,2.8,9.34,0,7.23-5.74,14.95-4.28,22.2.09,2.77,1.67,4.84,1.42,7.34,0,8.11-4.6,16.16-6,24,.69,1.48,1.25,3.08.68,4.68,0a59,59,0,0,1,10.87-3.54c10.73-2.53,20.33,4.59,21.59,15.48,1.61,13.95.64,27.9.79,41.85,0,4.23.68,6.2,5.62,6.18a45.88,45.88,0,0,1,13.57,2.49c7.51,2.34,10.55,8.05,10.66,14.6.26,15.23,2,30.63-1.81,45.68-4.65,18.17-13.57,33.45-29.06,45-10.24,7.61-21.18,13.27-33.42,15.75-19.43,3.94-37.84.16-55.32-9.21-14.34-7.69-25.43-18.47-32.78-32.87a75.45,75.45,0,0,1-8.13-32c-.51-15.64-.13-31.3-.13-46.95Zm128.24,31.88c-4.65,3.65-10.13,5.14-15.61,6.43-14.2,3.33-27.19,8.7-36.94,20.18a11,11,0,0,1-8.19,4.14c-.1-6.77.72-8.61,5.9-12.16,6.58-4.52,13.3-8.85,19.83-13.43,3.9-2.75,10.71-4.62,10.93-8.42.21-3.59-5.36-7.44-8.22-11.31-1.47-2-2.63-2.26-4.83-.85-7.57,4.85-15.31,4.39-22.32-.91-3.1-2.34-5-1.84-7.68.16-6.63,5.06-13.58,5.75-20.85,1.24-1.37-.86-2.74-1.76-4.62-1.44-8.36,1.43-16.74,2.74-25.12,4.06-1.83.3-3,.92-3,3.16.1,10-.63,20,.67,30,4,30.62,28.9,55.3,61,61,29.34,5.18,61.47-10.81,75.61-37.3,10-18.7,9.5-38.79,8.35-59-.52-9.12-3.48-11.82-12.49-12.06-12.66-.34-25.32-.14-38-.26-2.58,0-3.12.64-2.23,3.18,3.23,9.19,9,15.84,18.4,18.9C207.37,192,210.66,193.06,213.34,195.63Zm-67.08-54.78h0c0-8.16.2-16.32,0-24.47-.25-7.9-4.09-11.6-11.32-11.6-7,0-11.52,4-11.63,11.51q-.39,24.46.11,48.94c.15,7.11,4.78,10.94,11.65,10.85s11-3.91,11.16-11.26C146.42,156.84,146.26,148.84,146.26,140.85Zm30.9-.43h0c0-8.15.16-16.31-.05-24.46-.19-7.12-4.49-11.18-11.3-11.21-7.08,0-11.55,4.13-11.63,11.44q-.25,24-.07,47.93c.07,7.72,4.48,12,11.68,12,6.87,0,11.11-4.13,11.36-11.71C177.37,156.4,177.16,148.41,177.16,140.42ZM92.82,140h.05c0,8.32-.21,16.64.07,24.95.23,7.06,4.25,10.91,10.81,11.11,7,.22,11.75-3.28,11.93-10.48q.66-24.93.07-49.9c-.17-7.49-4.62-11-11.54-10.83-7.25.2-11.15,4-11.35,11.69C92.66,124.33,92.82,132.15,92.82,140Zm92.56-2.68h-.28c0,6.83.11,13.66-.06,20.49-.06,2.59.72,3.48,3.35,3.4,5.33-.17,10.67-.19,16,0,2.82.1,3.72-.76,3.65-3.64-.16-7.49.06-15,0-22.49,0-6.48.31-13-.91-19.43-1-5.09-7.37-10.78-11.4-10.4-5.33.51-10.11,5.61-10.31,11.57C185.2,123.63,185.38,130.46,185.38,137.29Z"/><path class="cls-3" d="M213.34,195.63c-2.68-2.57-6-3.62-9.29-4.7-9.43-3.06-15.17-9.71-18.4-18.9-.89-2.54-.35-3.21,2.23-3.18,12.66.12,25.32-.08,38,.26,9,.24,12,2.94,12.49,12.06,1.15,20.16,1.63,40.25-8.35,59-14.14,26.49-46.27,42.48-75.61,37.3-32.15-5.69-57-30.37-61-61-1.3-9.92-.57-20-.67-30,0-2.24,1.12-2.86,3-3.16,8.38-1.32,16.76-2.63,25.12-4.06,1.88-.32,3.25.58,4.62,1.44,7.27,4.51,14.22,3.82,20.85-1.24,2.63-2,4.58-2.5,7.68-.16,7,5.3,14.75,5.76,22.32.91,2.2-1.41,3.36-1.15,4.83.85,2.86,3.87,8.43,7.72,8.22,11.31-.22,3.8-7,5.67-10.93,8.42-6.53,4.58-13.25,8.91-19.83,13.43-5.18,3.55-6,5.39-5.9,12.16a11,11,0,0,0,8.19-4.14c9.75-11.48,22.74-16.85,36.94-20.18C203.21,200.77,208.69,199.28,213.34,195.63Z"/><path class="cls-3" d="M146.26,140.85c0,8,.16,16,0,24C146,172.17,142,176,135.05,176.08s-11.5-3.74-11.65-10.85q-.51-24.47-.11-48.94c.11-7.49,4.65-11.5,11.63-11.51,7.23,0,11.07,3.7,11.32,11.6.25,8.15,0,16.31,0,24.47Z"/><path class="cls-3" d="M177.16,140.42c0,8,.21,16-.06,24-.25,7.58-4.49,11.71-11.36,11.71-7.2,0-11.61-4.25-11.68-12q-.23-24,.07-47.93c.08-7.31,4.55-11.47,11.63-11.44,6.81,0,11.11,4.09,11.3,11.21.21,8.15.05,16.31.05,24.46Z"/><path class="cls-4" d="M92.82,140c0-7.82-.16-15.64,0-23.46.2-7.66,4.1-11.49,11.35-11.69,6.92-.19,11.37,3.34,11.54,10.83q.59,24.94-.07,49.9c-.18,7.2-4.88,10.7-11.93,10.48-6.56-.2-10.58-4.05-10.81-11.11-.28-8.31-.07-16.63-.07-24.95Z"/><path class="cls-5" d="M185.38,137.29c0-6.83-.18-13.66.05-20.48.2-6,5-11.06,10.31-11.57,4-.38,10.43,5.31,11.4,10.4,1.22,6.42.87,13,.91,19.43,0,7.5-.18,15,0,22.49.07,2.88-.83,3.74-3.65,3.64-5.32-.21-10.66-.19-16,0-2.63.08-3.41-.81-3.35-3.4.17-6.83.06-13.66.06-20.49Z"/></g></g></svg>