<svg xmlns="http://www.w3.org/2000/svg" viewBox="0 0 463.6 744.96"><g id="Calque_2" data-name="Calque 2"><g id="Calque_1-2" data-name="Calque 1"><path d="M78.56,744.88c30.45-82.62,60.49-164.13,90.81-246.43-2.47-.13-4.35-.31-6.22-.32-20.66,0-41.32-.11-62,.08-3.92,0-5.83-1-7.24-4.86C80.9,457.52,67.63,421.77,54.45,386Q28.12,314.57,1.84,243.12C1.23,241.45.7,239.75,0,237.67c2.06-.1,3.53-.23,5-.23,26.49,0,53,0,79.48-.09,3.37,0,5,.88,6,4.25q18.13,57.14,36.55,114.19,8.22,25.62,16.39,51.26c.44,1.35,1.09,2.64,2.07,5,1.07-3,1.84-4.95,2.47-6.94q26-81.1,51.87-162.26c1.37-4.34,3.3-5.56,7.68-5.5,17.82.25,35.66,0,53.49.16,3.39,0,5-1,6.15-4.23,8.8-23.84,17.93-47.56,26.69-71.42Q322.64,83.52,351.07,5.1c1.34-3.69,2.86-5.35,7.05-5.07,6.44.43,12.93.11,20.17.11-.74,2.27-1.23,4-1.83,5.58Q296.42,223,216.37,440.28q-18.15,49.23-36.31,98.44-37.23,101-74.37,202c-1.19,3.24-2.75,4.38-6.12,4.26C92.94,744.71,86.3,744.88,78.56,744.88Z"/><path d="M230.23,552.12,270.93,494c1.71,1.44,3.19,2.67,4.66,3.92,23.21,19.57,50,29.71,80.34,29.3a52.82,52.82,0,0,0,20.64-4.72c10-4.59,10.49-16.16.6-21-8.83-4.3-18.7-6.91-28.38-8.94-20.86-4.39-42-7.5-61.82-15.89-18.13-7.68-33.45-18.55-42-37.13a11.26,11.26,0,0,1-.34-9.48q15.45-41.43,30.54-83a13.51,13.51,0,0,1,6.87-8c22.32-11.8,46.29-15.33,71.14-14.56,35.09,1.08,67.78,9.85,96.7,30.5,2.26,1.61,4.24,3.62,7,6-13.86,18.54-27.54,36.82-41.23,55.14-6.56-3.88-12.51-7.89-18.87-11.07-19.15-9.59-39.21-15.72-61-13.78a26.59,26.59,0,0,0-11.71,3.57c-7.83,5-7.49,15.61,1,19.39,7.65,3.42,16,5.54,24.29,7.15,22.07,4.29,44.34,7.67,65.34,16.24,11.68,4.76,22.44,11,31.36,20a58.8,58.8,0,0,1,17.12,36.86c4.11,45-19.45,80-63.09,92.51-35.67,10.25-71.56,8.54-107.16-.68C271.23,580.79,252,570,234.5,556.2c-.92-.72-1.78-1.51-2.63-2.3C231.39,553.46,231,552.94,230.23,552.12Z"/></g></g></svg>