<svg xmlns="http://www.w3.org/2000/svg" viewBox="0 0 331.24 330.12"><defs><style>.cls-1{fill:#82bd60;}.cls-2{fill:#21241e;}.cls-3{fill:#1b2e0f;}.cls-4{fill:#88b26e;}.cls-5{fill:#fcfcfb;}.cls-6{fill:#fbfafa;}.cls-7{fill:#fbfbfa;}</style></defs><g id="Calque_2" data-name="Calque 2"><g id="Calque_1-2" data-name="Calque 1"><path class="cls-1" d="M165.64,330q-80,0-159.95.07c-4.05,0-5.7-.57-5.69-5.32Q.24,165.86.14,6.93C.14-.58-1.17.15,7.14.15Q166.09.11,325,0c5.21,0,6.19,1.47,6.18,6.36q-.21,159.18,0,318.35c0,4.61-1.47,5.42-5.65,5.41Q245.61,329.93,165.64,330ZM97.4,242.9h-.09c-.15.94,0,1.75,1,2.06l-.06,0c-.1,3.18-.32,6.44,4.06,7a77.81,77.81,0,0,0,33.24,27.75c39.89,17.56,86.25-2.5,99.19-43.57,6.52-20.68,4.79-42.18,3.57-63.41-.43-7.65-4.66-11.11-12.11-12.47-3.58-.65-7.27-.71-10.88-1.26-2.09-.32-5,.47-5.46-2.94l8-37.94.33-3.46c2.21-2.81,1.34-6.55,2.89-9.56,3.16-3.68,2.79-8.17,2.88-12.55,0-.49.07-1,.11-1.46a2.06,2.06,0,0,0,2.07-1.74c2.12-9.06,4.37-18.16,3.31-27.52-.89-7.81-6.55-12.3-13.47-11.58h.06c-3.66-3.92-8-2-12.2-1.4-1.54.23-1.81,1.71-1.75,3.12a.71.71,0,0,1-.68.26c-1-.05-1.9,0-2.12,1.21l.1,0c-2-.62-3.11.68-3.94,2.14-3.32,5.82-5.41,11.93-4.26,18.77a.7.7,0,0,1-.12.73c-1,.62-.91,1.58-.83,2.55-.19,5-1.52,9.75-2.94,14.49-1.66.58-3.57,1.27-3.06-1.68a23.45,23.45,0,0,0,0-4.81,183.3,183.3,0,0,1,.25-20.84c.29-3.3.18-6.08-1.62-8.79l-.11-.24.17-.2c.74-4.35.12-9.41-2.62-11.88-5-4.54-12.25-4.13-18.79-4.39a5.52,5.52,0,0,0-5.24,3.1l.1.08c-1.66-.51-2.27.22-2.15,1.81v0c-.93-.12-2-.43-2.63.47-.46.64.15,1.13.7,1.47L152,47.76c-3.23,3.34-3.94,7.53-3.95,11.93q0,27.19,0,54.38c-5.17-.59-10.07-3.08-15.55-1.56-3.65,1-6.25,4.63-9.47,4.89s-5.54-4.41-9.52-4.42c-5.57-2.53-10.45-.22-15.32,2.16-4,.68-6.89,2.27-7.27,6.9-1.19,14.52-2,29.05-1.75,43.62,0,2.46,1.31,4.81.92,7.36-1.67,11,.11,22.2-.94,33.26-.14,1.48.24,2.66,2,2.82,0,1,0,1.94.07,2.91-3.94,6-1.31,12.19.06,18.07.82,3.48,1.2,7.75,5.07,9.92l.75,2.07C96.35,242.61,96.62,242.83,97.4,242.9Z"/><path class="cls-2" d="M187.33,92.18c1.42-4.74,2.75-9.5,2.94-14.49a2.67,2.67,0,0,0,.83-2.55.7.7,0,0,0,.12-.73c.25-.12.51-.23.77-.33,3.52-.17,3-2.78,3.16-5.08.65-9.24,8-18.42,18-16.91a32.32,32.32,0,0,0,5.47-.08l1.61.79c.07.58.13,1.17.86.43,6.88,4.66,7.81,11.48,6.63,18.89-1,6.35-2.4,12.65-3.61,19,0,.48-.07,1-.11,1.46l-1.58,3.63c-1.72-.08-2,1.06-2.42,2.44a39.68,39.68,0,0,0-1.77,16l-.33,3.46c-2.39.25-2.81,1.91-2.78,3.89a27.11,27.11,0,0,1-.81,7.31c-2.05,7.91-3.8,15.89-5.75,23.83-.37,1.49-.54,2.61,1.36,2.91.5,3.41,3.37,2.62,5.46,2.94,3.61.55,7.3.61,10.88,1.26,7.45,1.36,11.68,4.82,12.11,12.47,1.22,21.23,2.95,42.73-3.57,63.41-12.94,41.07-59.3,61.13-99.19,43.57A77.81,77.81,0,0,1,102.36,252a26.41,26.41,0,0,0-4.06-7l.06,0a2.1,2.1,0,0,0-1-2.06h.08a.91.91,0,0,0-.25-.83L96.39,240c-1.63-5.91-3.75-11.72-4-17.93,1.29-1.62.61-3.52.77-5.3,1.23-14.39-1.57-28.7-.24-43.19C94.57,155.47,91.38,137.1,95,119v.06l1-1.1L96,118c1-.13,2.3.11,2.84-.43,4.13-4.16,9.26-4.81,14.7-4.59,4,0,6.34,4.69,9.52,4.42s5.82-3.89,9.47-4.89c5.48-1.52,10.38,1,15.55,1.56,2.16-2.65.83-5.74,1-8.61,1.2-18.56-2.69-37.39,3-55.73a6,6,0,0,0-.06-2l.36-1.52c.65-.64,1.29-1.29,1.93-1.94v0c1-.24,2-.59,2.15-1.81l-.1-.08c2.4-.44,4.79-1.05,7.22-1.27,9.34-.87,14.7,3.17,19.43,14.44l-.17.2.11.24q0,24.81,0,49.63l1.66.16Zm22.19,98.49c-4,2.64-4.57,2.85-8.89,3.39a60.55,60.55,0,0,0-37.06,18.75c-1.73,1.79-3.49,3.56-5.29,5.28-.69.67-1.5,1.63-2.57,1s-.59-1.81-.57-2.74c.1-4.55,2.81-7.68,6-10.46,6.46-5.61,14-9.56,21.45-13.59,5.95-3.22,5.92-3.11,2.09-8.91a88.83,88.83,0,0,1-5.85-9.84c-3.89-7.92-.38-13.88,8.41-14.41a112.91,112.91,0,0,1,11.49,0c2.69.11,3.94-.38,4.55-3.56,2.56-13.18,5.67-26.26,8.46-39.4q5-23.37,9.7-46.8a10.83,10.83,0,0,0-6.3-12.27c-4-1.68-8-.13-11.54,4.47a24.51,24.51,0,0,0-4.5,9.88q-7.44,34.29-15,68.55c-.73,3.35-1.75,6.57-4.95,8.8a13.54,13.54,0,0,1-3-8.43c.05-9,0-18-.06-27,0-17.82,0-35.65,0-53.47,0-7.72-3.65-11.88-10.23-12.17-7.3-.32-11.59,4.58-11.63,13.59-.06,17.16,0,34.32,0,51.47,0,20.33.19,40.65-.11,61-.22,14.86-14.45,22.57-26.67,14.44-3.53-2.34-5.63-2.51-8.76.23-2.51,2.2-5.91,2.74-9.36,2.87-3.82.14-7.3-1.33-11.3-2.1.3,11.69-.81,23,1.05,34.25a66.59,66.59,0,0,0,58.75,55.48c37.89,4,64.23-20.93,71.44-46.71,5.3-19,3.54-38.32,2.5-57.55a8.4,8.4,0,0,0-8.58-8.24c-12.16-.12-24.32-.12-36.48-.28-2.45,0-2.76.93-2.2,3,2.33,8.54,7.64,14.22,16.1,16.85C203.76,187,206.94,187.86,209.52,190.67Zm-61.61-39.08H148c0-7.32.22-14.65-.06-22-.27-7-4.23-10.83-10.45-10.88-6.62,0-11.06,3.88-11.17,10.75-.22,14.81-.19,29.62,0,44.43.06,4.5,1.81,8.47,6.57,10.2,7.8,2.84,14.41-1.38,14.93-10.08C148.26,166.59,147.91,159.08,147.91,151.59Zm-49.78-.06c0,7.65-.13,15.31,0,22.95.15,6.25,4.37,10.33,10.37,10.45,6.22.13,10.48-3.46,10.63-10q.49-22.69.23-45.39c-.1-7.37-4.14-11-10.83-10.79s-10.33,4.15-10.42,11.32S98.13,144.38,98.13,151.53Z"/><path class="cls-3" d="M95,119c-3.66,18.09-.47,36.46-2.14,54.57-1.33,14.49,1.47,28.8.24,43.19-.16,1.78.52,3.68-.77,5.3L91.26,212c0-1-.05-1.94-.07-2.91q.06-39.06.14-78.11C91.34,126.65,91.9,122.42,95,119Z"/><path class="cls-4" d="M95,119c-3.14,3.41-3.7,7.64-3.71,12q-.1,39.06-.14,78.11c-1.77-.16-2.15-1.34-2-2.82,1-11.06-.73-22.21.94-33.26.39-2.55-.88-4.9-.92-7.36C89,151.09,89.76,136.56,91,122c.38-4.63,3.31-6.22,7.27-6.9L96,118l.07,0-1,1.1Z"/><path class="cls-4" d="M220.22,52.8,218.61,52,216,50.26c6.92-.72,12.58,3.77,13.47,11.58,1.06,9.36-1.19,18.46-3.31,27.52a2.06,2.06,0,0,1-2.07,1.74c1.21-6.33,2.59-12.63,3.61-19,1.18-7.41.25-14.23-6.63-18.89A1.42,1.42,0,0,0,220.22,52.8Z"/><path class="cls-3" d="M216,50.26l2.6,1.75a32.32,32.32,0,0,1-5.47.08c-10-1.51-17.34,7.67-18,16.91-.17,2.3.36,4.91-3.16,5.08a41.84,41.84,0,0,1,7.43-20.58l-.1-.06c1,.13,1.56-.54,2.12-1.2a.71.71,0,0,0,.68-.26c4.43-2.36,9.18-2.13,13.95-1.72Z"/><path class="cls-4" d="M187.33,92.18l-2.73,13.67-1.66-.16q0-24.81,0-49.63c1.8,2.71,1.91,5.49,1.62,8.79a183.3,183.3,0,0,0-.25,20.84,23.45,23.45,0,0,1,0,4.81C183.76,93.45,185.67,92.76,187.33,92.18Z"/><path class="cls-3" d="M152,47.76a6,6,0,0,1,.06,2c-5.67,18.34-1.78,37.17-3,55.73-.18,2.87,1.15,6-1,8.61q0-27.19,0-54.38C148.07,55.29,148.78,51.1,152,47.76Z"/><path class="cls-4" d="M183,55.62c-4.73-11.27-10.09-15.31-19.43-14.44-2.43.22-4.82.83-7.22,1.27a5.52,5.52,0,0,1,5.24-3.1c6.54.26,13.76-.15,18.79,4.39C183.11,46.21,183.73,51.27,183,55.62Z"/><path class="cls-3" d="M209.91,156.07c-1.9-.3-1.73-1.42-1.36-2.91,1.95-7.94,3.7-15.92,5.75-23.83a27.11,27.11,0,0,0,.81-7.31c0-2,.39-3.64,2.78-3.89Z"/><path class="cls-4" d="M91.26,212l1.11,10.06c.27,6.21,2.39,12,4,17.93-3.87-2.17-4.25-6.44-5.07-9.92C90,224.2,87.32,218,91.26,212Z"/><path class="cls-4" d="M199.42,53.5A41.84,41.84,0,0,0,192,74.08c-.26.1-.52.21-.77.33-1.15-6.84.94-12.95,4.26-18.77C196.31,54.18,197.38,52.88,199.42,53.5Z"/><path class="cls-3" d="M218.22,114.67a39.68,39.68,0,0,1,1.77-16c.46-1.38.7-2.52,2.42-2.44-.43,3-.86,6-1.3,8.92C219.56,108.12,220.43,111.86,218.22,114.67Z"/><path class="cls-4" d="M216.07,50.26c-4.77-.41-9.52-.64-13.95,1.72-.06-1.41.21-2.89,1.75-3.12C208,48.24,212.41,46.34,216.07,50.26Z"/><path class="cls-3" d="M96,118l2.22-2.86c4.87-2.38,9.75-4.69,15.32-2.16-5.44-.22-10.57.43-14.7,4.59C98.3,118.11,97,117.87,96,118Z"/><path class="cls-4" d="M221.11,105.11c.44-3,.87-6,1.3-8.92L224,92.56C223.9,96.94,224.27,101.43,221.11,105.11Z"/><path class="cls-4" d="M98.3,244.93a26.41,26.41,0,0,1,4.06,7C98,251.37,98.2,248.11,98.3,244.93Z"/><path class="cls-4" d="M154.3,44.3c-.64.65-1.28,1.3-1.93,1.94-.55-.34-1.16-.83-.7-1.47C152.32,43.87,153.37,44.18,154.3,44.3Z"/><path class="cls-4" d="M156.44,42.53c-.19,1.22-1.13,1.57-2.15,1.81C154.17,42.75,154.78,42,156.44,42.53Z"/><path class="cls-4" d="M191.1,75.14a2.67,2.67,0,0,1-.83,2.55C190.19,76.72,190.13,75.76,191.1,75.14Z"/><path class="cls-4" d="M201.44,52.24c-.56.66-1.11,1.33-2.12,1.2C199.54,52.2,200.47,52.19,201.44,52.24Z"/><path class="cls-4" d="M97.31,242.91a2.1,2.1,0,0,1,1,2.06C97.27,244.66,97.16,243.85,97.31,242.91Z"/><path class="cls-4" d="M97.14,242.07a.91.91,0,0,1,.25.83C96.62,242.83,96.35,242.61,97.14,242.07Z"/><path class="cls-5" d="M209.52,190.67c-2.58-2.81-5.76-3.71-9-4.7-8.46-2.63-13.77-8.31-16.1-16.85-.56-2.06-.25-3,2.2-3,12.16.16,24.32.16,36.48.28a8.4,8.4,0,0,1,8.58,8.24c1,19.23,2.8,38.58-2.5,57.55C222,258,195.68,282.9,157.79,278.91A66.59,66.59,0,0,1,99,223.43c-1.86-11.26-.75-22.56-1.05-34.25,4,.77,7.48,2.24,11.3,2.1,3.45-.13,6.85-.67,9.36-2.87,3.13-2.74,5.23-2.57,8.76-.23,12.22,8.13,26.45.42,26.67-14.44.3-20.32.11-40.64.11-61,0-17.15,0-34.31,0-51.47,0-9,4.33-13.91,11.63-13.59,6.58.29,10.2,4.45,10.23,12.17.08,17.82,0,35.65,0,53.47,0,9,.11,18,.06,27a13.54,13.54,0,0,0,3,8.43c3.2-2.23,4.22-5.45,4.95-8.8q7.53-34.27,15-68.55a24.51,24.51,0,0,1,4.5-9.88c3.5-4.6,7.55-6.15,11.54-4.47a10.83,10.83,0,0,1,6.3,12.27q-4.69,23.43-9.7,46.8c-2.79,13.14-5.9,26.22-8.46,39.4-.61,3.18-1.86,3.67-4.55,3.56a112.91,112.91,0,0,0-11.49,0c-8.79.53-12.3,6.49-8.41,14.41a88.83,88.83,0,0,0,5.85,9.84c3.83,5.8,3.86,5.69-2.09,8.91-7.46,4-15,8-21.45,13.59-3.19,2.78-5.9,5.91-6,10.46,0,.93-.4,2.15.57,2.74s1.88-.32,2.57-1c1.8-1.72,3.56-3.49,5.29-5.28a60.55,60.55,0,0,1,37.06-18.75C205,193.52,205.55,193.31,209.52,190.67Z"/><path class="cls-6" d="M147.91,151.59c0,7.49.35,15-.09,22.46-.52,8.7-7.13,12.92-14.93,10.08-4.76-1.73-6.51-5.7-6.57-10.2-.2-14.81-.23-29.62,0-44.43.11-6.87,4.55-10.79,11.17-10.75,6.22,0,10.18,3.89,10.45,10.88.28,7.31.06,14.64.06,22Z"/><path class="cls-7" d="M98.13,151.53c0-7.15-.07-14.3,0-21.45s3.84-11.16,10.42-11.32,10.73,3.42,10.83,10.79q.3,22.69-.23,45.39c-.15,6.53-4.41,10.12-10.63,10-6-.12-10.22-4.2-10.37-10.45C98,166.84,98.13,159.18,98.13,151.53Z"/><path class="cls-3" d="M220.22,52.8a1.42,1.42,0,0,1,.86.43C220.35,54,220.29,53.38,220.22,52.8Z"/><path class="cls-3" d="M95,119.07l1-1.1Z"/></g></g></svg>