<svg xmlns="http://www.w3.org/2000/svg" viewBox="0 0 331.16 330.14"><defs><style>.cls-1{fill:#ec5253;}.cls-2{fill:#2a211f;}.cls-3{fill:#fcfcfc;}.cls-4{fill:#fbfafa;}.cls-5{fill:#faf9f9;}</style></defs><g id="Calque_2" data-name="Calque 2"><g id="Calque_1-2" data-name="Calque 1"><path class="cls-1" d="M165.58,330c-53.31,0-106.61-.07-159.92.11C1,330.14,0,328.77,0,324.34Q.18,164.94,0,5.54C0,1.27.85,0,5.4,0Q165.57.22,325.74,0c4.55,0,5.41,1.29,5.41,5.56q-.18,159.39,0,318.79c0,4.47-1,5.8-5.66,5.79C272.2,330,218.89,330,165.58,330ZM94.14,161.86h.14c0,17.82-.07,35.64,0,53.46a66.74,66.74,0,0,0,6.38,28.52c18.16,38.23,62.14,54.13,100.44,35.68,23.82-11.48,38.24-30.67,41-57.35,2.11-20.39.68-40.92.91-61.39q.14-13-.11-26c-.17-9.9-6.11-14-15.22-10.46a58.5,58.5,0,0,0-7,3.73c-5.81,3.26-5.94,3.15-6.11-3.48-.42-16.64-.25-33.26.23-49.91.43-15-9.3-22.61-24-19.61-3.17.66-4.57-.36-5.52-3.17-2.58-7.65-8-11.45-16.05-11.87-8.55-.45-14,3.72-17,11.17-1.51,3.68-3.31,4.39-7.15,3.54-13.14-2.91-23.06,5.5-22.91,19a89.64,89.64,0,0,0,.26,10c.63,5.19-1.46,6-6.22,5.34-14.77-2.1-22,4.37-22,19.35C94.1,126.23,94.14,144.05,94.14,161.86Z"/><path class="cls-2" d="M94.14,161.86c0-17.81,0-35.63,0-53.45,0-15,7.28-21.45,22-19.35,4.76.68,6.85-.15,6.22-5.34a89.64,89.64,0,0,1-.26-10c-.15-13.5,9.77-21.91,22.91-19,3.84.85,5.64.14,7.15-3.54,3.05-7.45,8.47-11.62,17-11.17,8.1.42,13.47,4.22,16.05,11.87.95,2.81,2.35,3.83,5.52,3.17,14.68-3,24.41,4.59,24,19.61-.48,16.65-.65,33.27-.23,49.91.17,6.63.3,6.74,6.11,3.48a58.5,58.5,0,0,1,7-3.73c9.11-3.53,15,.56,15.22,10.46q.23,13,.11,26c-.23,20.47,1.2,41-.91,61.39-2.76,26.68-17.18,45.87-41,57.35-38.3,18.45-82.28,2.55-100.44-35.68a66.74,66.74,0,0,1-6.38-28.52c-.1-17.82,0-35.64,0-53.46Zm15.31,1.85c2.23-3,4.14-5.54,6.88-7,4.7-2.52,6-6.24,6.1-11.39.38-13.5.48-27-.07-40.47-.28-7-4.93-11-10.89-9.73-4.63,1-10.55,8.26-10.54,13,0,34.82,0,69.64.11,104.46.14,37.13,28.73,66.44,65.89,67.73A66.88,66.88,0,0,0,236,214.56c.22-16.49.29-33,.34-49.47,0-9.5-.07-19-.22-28.49C236,130.3,235,129.66,229,132c-10.43,4-14.36,12.38-14.65,22.78-.29,10.15,0,20.32,0,30.48,0,7-1.29,8.37-8.27,9-14.67,1.27-27.29,6.8-37.41,17.72a47.51,47.51,0,0,1-6.28,5.66c-1.07.8-3,1.8-4,.7s-.58-3.18.06-4.72c.3-.73,1.07-1.25,1.6-1.89a58.78,58.78,0,0,1,24.86-17.82c6.38-2.36,12.56-5.28,19-7.5,3.25-1.13,4.08-2.77,4.07-6.09-.14-35-.07-70-.12-105a29.7,29.7,0,0,0-.77-6.91c-1.1-4.56-4.18-7-8.87-7.35-7.81-.61-12,3.32-12,11.59-.07,23.16,0,46.32-.14,69.47,0,4.29.16,7.29,5.69,7.41,2.83.06,7.21,2.05,6.8,4.58-.5,3-4.83,2.18-7.74,2-.49,0-1-.07-1.49-.15-23.86-3.64-47.08-1-69.7,7.22A17,17,0,0,1,109.45,163.71Zm48.48-63h-.39c0,14.3.07,28.61,0,42.92,0,3,.75,4.19,3.91,4a103.94,103.94,0,0,1,13,0c4.06.29,5.07-1.44,5-5.19-.11-27.78-.06-55.57-.11-83.35a17.72,17.72,0,0,0-.82-5.86c-1.77-4.91-6.26-7.06-12.2-6.17-4.8.72-8.19,4.16-8.28,9.72C157.77,71.44,157.93,86.08,157.93,100.72ZM129.32,111h0c0,12.33.2,24.65-.11,37-.11,4.27,1.44,4.7,4.9,3.85,4.19-1,8.41-2.27,12.68-2.56,4-.27,4.46-2.16,4.36-5.45-.2-6.16-.06-12.32-.06-18.48,0-17.49.06-35,0-52.45C151,65,147.2,61,140.14,61c-7.23,0-10.7,4-10.79,13.07C129.23,86.37,129.32,98.69,129.32,111Z"/><path class="cls-3" d="M109.45,163.71a17,17,0,0,0,10.15-.57c22.62-8.21,45.84-10.86,69.7-7.22.5.08,1,.12,1.49.15,2.91.19,7.24,1,7.74-2,.41-2.53-4-4.52-6.8-4.58-5.53-.12-5.72-3.12-5.69-7.41.17-23.15.07-46.31.14-69.47,0-8.27,4.2-12.2,12-11.59,4.69.36,7.77,2.79,8.87,7.35a29.7,29.7,0,0,1,.77,6.91c0,35,0,70,.12,105,0,3.32-.82,5-4.07,6.09-6.43,2.22-12.61,5.14-19,7.5A58.78,58.78,0,0,0,160,211.66c-.53.64-1.3,1.16-1.6,1.89-.64,1.54-1.17,3.54-.06,4.72s3,.1,4-.7a47.51,47.51,0,0,0,6.28-5.66c10.12-10.92,22.74-16.45,37.41-17.72,7-.61,8.26-2,8.27-9,0-10.16-.26-20.33,0-30.48.29-10.4,4.22-18.77,14.65-22.78,6-2.29,7-1.65,7.08,4.65.15,9.5.25,19,.22,28.49-.05,16.49-.12,33-.34,49.47a66.88,66.88,0,0,1-69.07,65.77C129.77,279,101.18,249.73,101,212.6c-.13-34.82-.08-69.64-.11-104.46,0-4.77,5.91-12.06,10.54-13,6-1.26,10.61,2.75,10.89,9.73.55,13.49.45,27,.07,40.47-.15,5.15-1.4,8.87-6.1,11.39C113.59,158.17,111.68,160.74,109.45,163.71Z"/><path class="cls-4" d="M157.93,100.72c0-14.64-.16-29.28.08-43.91.09-5.56,3.48-9,8.28-9.72,5.94-.89,10.43,1.26,12.2,6.17a17.72,17.72,0,0,1,.82,5.86c.05,27.78,0,55.57.11,83.35,0,3.75-1,5.48-5,5.19a103.94,103.94,0,0,0-13,0c-3.16.18-3.93-1.06-3.91-4,.12-14.31,0-28.62,0-42.92Z"/><path class="cls-5" d="M129.32,111c0-12.32-.09-24.64,0-37,.09-9,3.56-13.09,10.79-13.07C147.2,61,151,65,151,72.89c.09,17.48,0,35,0,52.45,0,6.16-.14,12.32.06,18.48.1,3.29-.34,5.18-4.36,5.45-4.27.29-8.49,1.53-12.68,2.56-3.46.85-5,.42-4.9-3.85.31-12.32.11-24.64.11-37Z"/></g></g></svg>